<svg xmlns="http://www.w3.org/2000/svg" width="31.309" height="25.411" viewBox="0 0 31.309 25.411">
  <g id="티켓" transform="translate(0.751 0.005)">
    <path id="패스_6420" data-name="패스 6420" d="M574.153,318.884a1.677,1.677,0,0,1,1.562-1.771v-1.643a1.785,1.785,0,0,1,0-3.541V310.74a1.323,1.323,0,0,0-1.229-1.394H547.137a1.323,1.323,0,0,0-1.23,1.394v1.188a1.784,1.784,0,0,1,0,3.541v1.643a1.785,1.785,0,0,1,0,3.542v1.252a1.323,1.323,0,0,0,1.23,1.394h27.349a1.323,1.323,0,0,0,1.229-1.394v-1.252A1.676,1.676,0,0,1,574.153,318.884Z" transform="translate(-545.907 -303.448)" opacity="0.4"/>
    <path id="빼기_25" data-name="빼기 25" d="M20.936,5.151H.6a1.938,1.938,0,0,0,.451-.825A1.9,1.9,0,0,0,.885,2.905,1.462,1.462,0,0,0,0,2.212L.309,1.063A1.362,1.362,0,0,1,1.576,0a1.084,1.084,0,0,1,.283.037L20.936,5.15Z" transform="translate(3.459 0.745)" opacity="0.4"/>
    <rect id="사각형_24215" data-name="사각형 24215" width="25.406" height="25.406" transform="translate(2.722)" fill="none"/>
    <path id="패스_4589" data-name="패스 4589" d="M574.153,318.884a1.677,1.677,0,0,1,1.562-1.771v-1.643a1.785,1.785,0,0,1,0-3.541V310.74a1.323,1.323,0,0,0-1.229-1.394H547.137a1.323,1.323,0,0,0-1.23,1.394v1.188a1.784,1.784,0,0,1,0,3.541v1.643a1.785,1.785,0,0,1,0,3.542v1.252a1.323,1.323,0,0,0,1.23,1.394h27.349a1.323,1.323,0,0,0,1.229-1.394v-1.252A1.676,1.676,0,0,1,574.153,318.884Z" transform="translate(-545.907 -303.448)" fill="none" stroke="#fff" stroke-linejoin="round" stroke-width="1.5"/>
    <path id="패스_5940" data-name="패스 5940" d="M3.815-3.941H2.432v5.09H1.5v-5.09H.137v-1.02H3.815Zm1.52,5.09H4.4v-6.11h.93ZM9.742-.886A2.526,2.526,0,0,1,9.2.666a1.6,1.6,0,0,1-1.279.567A1.54,1.54,0,0,1,6.558.442a4.058,4.058,0,0,1-.5-2.172V-2.1A4.8,4.8,0,0,1,6.29-3.656a2.265,2.265,0,0,1,.656-1.03,1.493,1.493,0,0,1,.991-.359A1.566,1.566,0,0,1,9.2-4.478a2.716,2.716,0,0,1,.552,1.59h-.93a1.546,1.546,0,0,0-.243-.858.761.761,0,0,0-.637-.266.743.743,0,0,0-.7.451A3.261,3.261,0,0,0,7-2.162V-1.7A3.515,3.515,0,0,0,7.225-.253a.733.733,0,0,0,.7.457.773.773,0,0,0,.644-.266,1.448,1.448,0,0,0,.243-.825ZM11.767-1.3l-.484.7V1.149h-.93v-6.11h.93v2.77l.409-.76,1.151-2.01h1.144l-1.6,2.715,1.65,3.395H12.927ZM17.1-1.5H15.315V.138h2.1V1.149H14.384v-6.11H17.4v1.02h-2.09v1.456H17.1Zm4.317-2.442H20.035v5.09H19.1v-5.09H17.74v-1.02h3.678Z" transform="translate(4.524 14.661)" fill="#fff"/>
    <path id="빼기_24" data-name="빼기 24" d="M20.936,5.151H.6a1.938,1.938,0,0,0,.451-.825A1.9,1.9,0,0,0,.885,2.905,1.462,1.462,0,0,0,0,2.212L.309,1.063A1.362,1.362,0,0,1,1.576,0a1.084,1.084,0,0,1,.283.037L20.936,5.15Z" transform="translate(3.459 0.745)" fill="none" stroke="#fff" stroke-linejoin="round" stroke-width="1.5"/>
  </g>
</svg>
