<svg width="30" height="30" viewBox="0 0 30 30" fill="none" xmlns="http://www.w3.org/2000/svg" role="img"><path d="M24.2754 24.7663C24.4224 25 24.7311 25.0703 24.9649 24.9232C25.1986 24.7761 25.2688 24.4674 25.1217 24.2337L24.2754 24.7663ZM24.2138 14.3264C23.2654 18.0734 19.459 20.342 15.7121 19.3936L15.4667 20.3631C19.7491 21.447 24.0993 18.8541 25.1832 14.5718L24.2138 14.3264ZM15.7121 19.3936C11.9651 18.4452 9.69639 14.6389 10.6448 10.8919L9.67536 10.6465C8.59144 14.9289 11.1843 19.2792 15.4667 20.3631L15.7121 19.3936ZM10.6448 10.8919C11.5932 7.14493 15.3996 4.87623 19.1465 5.82464L19.3919 4.85521C15.1095 3.77129 10.7593 6.36415 9.67536 10.6465L10.6448 10.8919ZM19.1465 5.82464C22.8935 6.77304 25.1622 10.5794 24.2138 14.3264L25.1832 14.5718C26.2671 10.2894 23.6743 5.93913 19.3919 4.85521L19.1465 5.82464ZM20.8452 19.3166L24.2754 24.7663L25.1217 24.2337L21.6915 18.7839L20.8452 19.3166Z" fill="white"></path><line x1="4.5" y1="8.5" x2="8.5" y2="8.5" stroke="white" stroke-linecap="round"></line><line x1="4.5" y1="21.5" x2="12.5" y2="21.5" stroke="white" stroke-linecap="round"></line><line x1="4.5" y1="15" x2="7.5" y2="15" stroke="white" stroke-linecap="round"></line></svg>