<svg xmlns="http://www.w3.org/2000/svg" width="20" height="23" viewBox="0 0 20 23">
    <path fill="#FFF" fill-rule="evenodd" d="M14.004 5.251l.332.002c2.269.119 3.343 1.273 4.577 2.467-1.314.994-2.706 2.427-2.547 4.695.199 2.268 1.711 3.621 3.223 4.417 0 1.393-2.587 5.73-5.332 6.128-1.592.239-2.07-.955-4.099-.955-1.631 0-2.109.955-4.098.995C3.234 23 .21 16.991.01 12.654-.188 8.634 2.32 5.77 5.184 5.451c3.303-.358 3.184.916 4.775.876 1.711-.04 2.547-1.154 4.377-1.074zM14.058 0c.437 2.666-1.751 5.73-4.656 5.57-.199-1.59.876-5.053 4.656-5.57z"/>
</svg>
